<svg width="657.9px" height="122px" xmlns="http://www.w3.org/2000/svg" viewBox="-78.94687499999998 14 657.89375 122" style="background: rgb(194, 227, 239)" preserveAspectRatio="xMidYMid"><defs><linearGradient id="editing-gradient-gradient" x1="0" x2="1" y1="0.5" y2="0.5" gradientUnits="objectBoundingBox"><stop offset="0" stop-color="#f91a10"></stop><stop offset="1" stop-color="#f0f0b0"></stop></linearGradient></defs><g><g transform="matrix(1.3,0,0,2,-27.3,-5.2)"><path d="M -21.8 55.2 L -35.8 55.2 L -27.6 13 L -13.6 13 L -21.8 55.2 Z M 33.9 56.5 L 33.9 56.5 L 33.9 56.5 Q 26.2 56.5 26.2 50.5 L 26.2 50.5 L 26.2 50.5 Q 26.2 47.9 27.3 42.8 L 27.3 42.8 L 27.3 42.8 Q 28.4 37.7 28.8 35.6 L 28.8 35.6 L 28.8 35.6 Q 29.7 31 29.7 29.5 L 29.7 29.5 L 29.7 29.5 Q 29.7 26.2 27.3 26.2 L 27.3 26.2 L 27.3 26.2 Q 25.7 26.2 24.1 28.4 L 24.1 28.4 L 24.1 28.4 Q 22.6 30.6 21.9 35.1 L 21.9 35.1 L 17.9 55.2 L 5.4 56.5 L 8.9 39.1 L 8.9 39.1 Q 9.5 36.2 10 33 L 10 33 L 10 33 Q 10.5 29.7 10.5 29.2 L 10.5 29.2 L 10.5 29.2 Q 10.5 26.2 8.3 26.2 L 8.3 26.2 L 8.3 26.2 Q 6.9 26.2 5.3 28.4 L 5.3 28.4 L 5.3 28.4 Q 3.7 30.6 2.8 35.1 L 2.8 35.1 L -1.1 55.2 L -13.8 56.5 L -7 22.6 L 3.4 21.3 L 2.3 27.8 L 2.3 27.8 Q 4 24.3 7 22.8 L 7 22.8 L 7 22.8 Q 10.1 21.3 14.9 21.3 L 14.9 21.3 L 14.9 21.3 Q 17.7 21.3 19.5 22.6 L 19.5 22.6 L 19.5 22.6 Q 21.3 24 21.8 26.2 L 21.8 26.2 L 21.8 26.2 Q 22.9 23.9 25.7 22.6 L 25.7 22.6 L 25.7 22.6 Q 28.5 21.3 31.9 21.3 L 31.9 21.3 L 31.9 21.3 Q 35.3 21.3 37 22 L 37 22 L 37 22 Q 38.7 22.8 39.7 24 L 39.7 24 L 39.7 24 Q 41.5 26.2 41.5 30.3 L 41.5 30.3 L 41.5 30.3 Q 41.5 34.4 39.7 42.7 L 39.7 42.7 L 39.7 42.7 Q 38.9 46.8 38.9 48.3 L 38.9 48.3 L 38.9 48.3 Q 38.9 49.8 39.7 50.7 L 39.7 50.7 L 39.7 50.7 Q 40.6 51.6 41.9 51.8 L 41.9 51.8 L 41.9 51.8 Q 41.2 53.9 39 55.2 L 39 55.2 L 39 55.2 Q 36.8 56.5 33.9 56.5 Z M 49.6 53.3 L 49.6 53.3 L 49.6 53.3 Q 48.1 51.6 47.4 49 L 47.4 49 L 47.4 49 Q 46.7 46.4 46.7 42.1 L 46.7 42.1 L 46.7 42.1 Q 46.7 37.8 48.2 33.9 L 48.2 33.9 L 48.2 33.9 Q 49.7 30 52.4 27.2 L 52.4 27.2 L 52.4 27.2 Q 57.9 21.3 66.9 21.3 L 66.9 21.3 L 66.9 21.3 Q 70.2 21.3 72.6 22.4 L 72.6 22.4 L 83.5 21.3 L 78.8 46.3 L 78.8 46.3 Q 78.6 47 78.6 48.4 L 78.6 48.4 L 78.6 48.4 Q 78.6 49.8 79.5 50.7 L 79.5 50.7 L 79.5 50.7 Q 80.3 51.6 81.6 51.8 L 81.6 51.8 L 81.6 51.8 Q 81 53.9 78.6 55.2 L 78.6 55.2 L 78.6 55.2 Q 76.3 56.5 73.7 56.5 L 73.7 56.5 L 73.7 56.5 Q 71 56.5 69.3 55.5 L 69.3 55.5 L 69.3 55.5 Q 67.5 54.5 67 52.9 L 67 52.9 L 67 52.9 Q 66 54.5 63.8 55.5 L 63.8 55.5 L 63.8 55.5 Q 61.6 56.5 58.7 56.5 L 58.7 56.5 L 58.7 56.5 Q 55.8 56.5 53.4 55.7 L 53.4 55.7 L 53.4 55.7 Q 51.1 55 49.6 53.3 Z M 63.1 27.3 L 63.1 27.3 L 63.1 27.3 Q 62.3 28.5 61.7 30.4 L 61.7 30.4 L 61.7 30.4 Q 61.1 32.4 60 37.6 L 60 37.6 L 60 37.6 Q 58.9 42.8 58.9 46.5 L 58.9 46.5 L 58.9 46.5 Q 58.9 50.2 59.5 51.3 L 59.5 51.3 L 59.5 51.3 Q 60.1 52.4 61.1 52.4 L 61.1 52.4 L 61.1 52.4 Q 63.2 52.4 64.7 50.5 L 64.7 50.5 L 64.7 50.5 Q 66.2 48.5 66.8 45 L 66.8 45 L 70.1 26.3 L 70.1 26.3 Q 68.8 25.1 67.2 25.1 L 67.2 25.1 L 67.2 25.1 Q 65.7 25.1 64.7 25.7 L 64.7 25.7 L 64.7 25.7 Q 63.8 26.2 63.1 27.3 Z M 91.3 28.5 L 91.3 28.5 L 91.3 28.5 Q 93.4 25.4 96.7 23.4 L 96.7 23.4 L 96.7 23.4 Q 100 21.3 104.1 21.3 L 104.1 21.3 L 104.1 21.3 Q 108.1 21.3 110 22.6 L 110 22.6 L 122.6 21.3 L 118.2 45.9 L 118.2 45.9 Q 116 58.4 111.2 63.4 L 111.2 63.4 L 111.2 63.4 Q 106.7 68 97.9 68 L 97.9 68 L 97.9 68 Q 91.1 68 87.3 65.9 L 87.3 65.9 L 87.3 65.9 Q 83.5 63.8 83.5 60.3 L 83.5 60.3 L 83.5 60.3 Q 83.5 57.7 85.4 56.2 L 85.4 56.2 L 85.4 56.2 Q 87.4 54.6 90.5 54.6 L 90.5 54.6 L 90.5 54.6 Q 93.2 54.6 95.2 55.9 L 95.2 55.9 L 95.2 55.9 Q 96.5 56.5 97 57.4 L 97 57.4 L 97 57.4 Q 95.6 58.7 95.6 60.8 L 95.6 60.8 L 95.6 60.8 Q 95.6 63.5 98.1 63.5 L 98.1 63.5 L 98.1 63.5 Q 102.4 63.5 104.8 53.4 L 104.8 53.4 L 104.8 53.4 Q 105.5 50.7 106.1 47.9 L 106.1 47.9 L 106.1 47.9 Q 103.2 51.4 96.7 51.4 L 96.7 51.4 L 96.7 51.4 Q 92.2 51.4 89.5 49.3 L 89.5 49.3 L 89.5 49.3 Q 86.9 47.1 86.9 42 L 86.9 42 L 86.9 42 Q 86.9 38.8 88 35.2 L 88 35.2 L 88 35.2 Q 89.1 31.5 91.3 28.5 Z M 99.6 42.2 L 99.6 42.2 L 99.6 42.2 Q 99.6 46.5 101.8 46.5 L 101.8 46.5 L 101.8 46.5 Q 103.4 46.5 104.8 44.9 L 104.8 44.9 L 104.8 44.9 Q 106 43.5 106.4 41.5 L 106.4 41.5 L 109.7 25.1 L 109.7 25.1 Q 109.4 25 109.1 24.9 L 109.1 24.9 L 109.1 24.9 Q 108.4 24.6 107.6 24.6 L 107.6 24.6 L 107.6 24.6 Q 103.7 24.6 101.4 31 L 101.4 31 L 101.4 31 Q 99.6 36 99.6 42.2 Z M 151 44.4 L 151 44.4 L 151 44.4 Q 152.6 45.5 152.6 47.9 L 152.6 47.9 L 152.6 47.9 Q 152.6 50.3 151.4 51.8 L 151.4 51.8 L 151.4 51.8 Q 150.1 53.4 148.2 54.4 L 148.2 54.4 L 148.2 54.4 Q 144.1 56.5 139.7 56.5 L 139.7 56.5 L 139.7 56.5 Q 135.2 56.5 132.6 55.5 L 132.6 55.5 L 132.6 55.5 Q 130.1 54.6 128.3 52.8 L 128.3 52.8 L 128.3 52.8 Q 124.9 49.4 124.9 43.2 L 124.9 43.2 L 124.9 43.2 Q 124.9 33.5 130.2 27.6 L 130.2 27.6 L 130.2 27.6 Q 135.8 21.3 145.6 21.3 L 145.6 21.3 L 145.6 21.3 Q 151.7 21.3 154.7 23.9 L 154.7 23.9 L 154.7 23.9 Q 156.9 25.8 156.9 28.9 L 156.9 28.9 L 156.9 28.9 Q 156.9 40.2 137.5 40.2 L 137.5 40.2 L 137.5 40.2 Q 137.2 41.8 137.2 43.3 L 137.2 43.3 L 137.2 43.3 Q 137.2 46.2 138.5 47.3 L 138.5 47.3 L 138.5 47.3 Q 139.8 48.4 142.3 48.4 L 142.3 48.4 L 142.3 48.4 Q 144.7 48.4 147.3 47.3 L 147.3 47.3 L 147.3 47.3 Q 149.9 46.2 151 44.4 Z M 137.9 37.4 L 137.9 37.4 L 137.9 37.4 Q 142.5 37.4 145.1 34.6 L 145.1 34.6 L 145.1 34.6 Q 147.7 31.9 147.7 27.6 L 147.7 27.6 L 147.7 27.6 Q 147.7 26.2 147.2 25.4 L 147.2 25.4 L 147.2 25.4 Q 146.6 24.6 145.5 24.6 L 145.5 24.6 L 145.5 24.6 Q 144.5 24.6 143.5 25 L 143.5 25 L 143.5 25 Q 142.6 25.4 141.6 26.8 L 141.6 26.8 L 141.6 26.8 Q 139.3 30 137.9 37.4 Z M 178.2 32.8 L 178.2 32.8 L 178.2 32.8 Q 179.1 30.4 179.1 28.3 L 179.1 28.3 L 179.1 28.3 Q 179.1 24.6 176.1 24.6 L 176.1 24.6 L 176.1 24.6 Q 174.5 24.6 173.2 26 L 173.2 26 L 173.2 26 Q 171.8 27.4 171.8 29.2 L 171.8 29.2 L 171.8 29.2 Q 171.8 30.5 172.9 31.5 L 172.9 31.5 L 172.9 31.5 Q 174.3 33 178.1 35.3 L 178.1 35.3 L 178.1 35.3 Q 181.9 37.6 183.3 39.4 L 183.3 39.4 L 183.3 39.4 Q 184.8 41.3 184.8 43.9 L 184.8 43.9 L 184.8 43.9 Q 184.8 46.5 183.5 48.9 L 183.5 48.9 L 183.5 48.9 Q 182.3 51.3 180 52.9 L 180 52.9 L 180 52.9 Q 175.2 56.5 167.6 56.5 L 167.6 56.5 L 167.6 56.5 Q 163.4 56.5 160.2 54.3 L 160.2 54.3 L 160.2 54.3 Q 157 52.2 157 49.7 L 157 49.7 L 157 49.7 Q 157 47.2 158.8 45.8 L 158.8 45.8 L 158.8 45.8 Q 160.6 44.3 163.3 44.3 L 163.3 44.3 L 163.3 44.3 Q 166 44.3 167.7 45.3 L 167.7 45.3 L 167.7 45.3 Q 166.9 47.4 166.9 48.8 L 166.9 48.8 L 166.9 48.8 Q 166.9 53 170.4 53 L 170.4 53 L 170.4 53 Q 172 53 173 52.1 L 173 52.1 L 173 52.1 Q 174 51.1 174 49.5 L 174 49.5 L 174 49.5 Q 174 46.2 168.5 42.7 L 168.5 42.7 L 168.5 42.7 Q 164 39.8 163 38.6 L 163 38.6 L 163 38.6 Q 161.3 36.6 161.3 34 L 161.3 34 L 161.3 34 Q 161.3 31.5 162.5 29 L 162.5 29 L 162.5 29 Q 163.7 26.6 166 24.9 L 166 24.9 L 166 24.9 Q 170.6 21.3 178.8 21.3 L 178.8 21.3 L 178.8 21.3 Q 182.9 21.3 185.4 23 L 185.4 23 L 185.4 23 Q 187.8 24.6 187.8 27.4 L 187.8 27.4 L 187.8 27.4 Q 187.8 30.3 186.1 31.9 L 186.1 31.9 L 186.1 31.9 Q 184.5 33.5 181.4 33.5 L 181.4 33.5 L 181.4 33.5 Q 179.3 33.5 178.2 32.8 Z M 229.3 34.6 L 242.2 33.5 L 242.2 33.5 Q 237.6 43.6 237.6 55.3 L 237.6 55.3 L 237.6 55.3 Q 235.9 56.5 233.4 56.5 L 233.4 56.5 L 233.4 56.5 Q 230.9 56.5 229.3 55.3 L 229.3 55.3 L 229.3 55.3 Q 227.7 54.1 227.3 52.9 L 227.3 52.9 L 227.3 52.9 Q 225.7 54.6 223.1 55.5 L 223.1 55.5 L 223.1 55.5 Q 220.5 56.5 217.8 56.5 L 217.8 56.5 L 217.8 56.5 Q 215 56.5 212.6 55.6 L 212.6 55.6 L 212.6 55.6 Q 210.2 54.7 208.4 52.7 L 208.4 52.7 L 208.4 52.7 Q 204.3 48.4 204.3 40.1 L 204.3 40.1 L 204.3 40.1 Q 204.3 27.3 211.1 19.6 L 211.1 19.6 L 211.1 19.6 Q 218.2 11.7 230.7 11.7 L 230.7 11.7 L 230.7 11.7 Q 239.3 11.7 242.4 16.2 L 242.4 16.2 L 242.4 16.2 Q 243.3 17.6 243.3 19.3 L 243.3 19.3 L 243.3 19.3 Q 243.3 21 242.6 22.4 L 242.6 22.4 L 242.6 22.4 Q 241.9 23.9 240.7 25 L 240.7 25 L 240.7 25 Q 238 27.6 234.6 27.6 L 234.6 27.6 L 234.6 27.6 Q 233.2 27.6 231.9 27.1 L 231.9 27.1 L 231.9 27.1 Q 232.2 25.2 232.2 23 L 232.2 23 L 232.2 23 Q 232.2 20.7 232 19.7 L 232 19.7 L 232 19.7 Q 231.9 18.7 231.5 17.8 L 231.5 17.8 L 231.5 17.8 Q 230.7 16.1 228.8 16.1 L 228.8 16.1 L 228.8 16.1 Q 227 16.1 225 18.1 L 225 18.1 L 225 18.1 Q 223 20 221.4 23.2 L 221.4 23.2 L 221.4 23.2 Q 217.9 30.4 217.9 39 L 217.9 39 L 217.9 39 Q 217.9 43 219.4 45.8 L 219.4 45.8 L 219.4 45.8 Q 221.1 48.9 224 48.9 L 224 48.9 L 224 48.9 Q 225 48.9 226 48.4 L 226 48.4 L 226 48.4 Q 226.9 47.9 227.3 47.5 L 227.3 47.5 L 229.3 34.6 Z M 248.2 53.3 L 248.2 53.3 L 248.2 53.3 Q 246.7 51.6 246 49 L 246 49 L 246 49 Q 245.3 46.4 245.3 42.1 L 245.3 42.1 L 245.3 42.1 Q 245.3 37.8 246.8 33.9 L 246.8 33.9 L 246.8 33.9 Q 248.3 30 250.9 27.2 L 250.9 27.2 L 250.9 27.2 Q 256.5 21.3 265.5 21.3 L 265.5 21.3 L 265.5 21.3 Q 268.8 21.3 271.2 22.4 L 271.2 22.4 L 282.1 21.3 L 277.4 46.3 L 277.4 46.3 Q 277.2 47 277.2 48.4 L 277.2 48.4 L 277.2 48.4 Q 277.2 49.8 278.1 50.7 L 278.1 50.7 L 278.1 50.7 Q 278.9 51.6 280.2 51.8 L 280.2 51.8 L 280.2 51.8 Q 279.6 53.9 277.2 55.2 L 277.2 55.2 L 277.2 55.2 Q 274.9 56.5 272.3 56.5 L 272.3 56.5 L 272.3 56.5 Q 269.6 56.5 267.9 55.5 L 267.9 55.5 L 267.9 55.5 Q 266.1 54.5 265.6 52.9 L 265.6 52.9 L 265.6 52.9 Q 264.6 54.5 262.4 55.5 L 262.4 55.5 L 262.4 55.5 Q 260.2 56.5 257.3 56.5 L 257.3 56.5 L 257.3 56.5 Q 254.4 56.5 252 55.7 L 252 55.7 L 252 55.7 Q 249.7 55 248.2 53.3 Z M 261.7 27.3 L 261.7 27.3 L 261.7 27.3 Q 260.9 28.5 260.3 30.4 L 260.3 30.4 L 260.3 30.4 Q 259.7 32.4 258.6 37.6 L 258.6 37.6 L 258.6 37.6 Q 257.5 42.8 257.5 46.5 L 257.5 46.5 L 257.5 46.5 Q 257.5 50.2 258.1 51.3 L 258.1 51.3 L 258.1 51.3 Q 258.7 52.4 259.7 52.4 L 259.7 52.4 L 259.7 52.4 Q 261.8 52.4 263.3 50.5 L 263.3 50.5 L 263.3 50.5 Q 264.8 48.5 265.3 45 L 265.3 45 L 268.7 26.3 L 268.7 26.3 Q 267.4 25.1 265.8 25.1 L 265.8 25.1 L 265.8 25.1 Q 264.3 25.1 263.3 25.7 L 263.3 25.7 L 263.3 25.7 Q 262.4 26.2 261.7 27.3 Z M 300.9 51.7 L 300.9 51.7 L 300.9 51.7 Q 298.9 56.5 292.5 56.5 L 292.5 56.5 L 292.5 56.5 Q 289.3 56.5 287.3 54.3 L 287.3 54.3 L 287.3 54.3 Q 285.6 52.4 285.6 50.3 L 285.6 50.3 L 285.6 50.3 Q 285.6 45.5 287.9 35 L 287.9 35 L 292.5 10.4 L 305.5 9.1 L 299.3 41.5 L 299.3 41.5 Q 298.2 46.3 298.2 47.9 L 298.2 47.9 L 298.2 47.9 Q 298.2 51.6 300.9 51.7 Z M 321.6 51.7 L 321.6 51.7 L 321.6 51.7 Q 319.6 56.5 313.3 56.5 L 313.3 56.5 L 313.3 56.5 Q 310.1 56.5 308 54.3 L 308 54.3 L 308 54.3 Q 306.4 52.4 306.4 50.3 L 306.4 50.3 L 306.4 50.3 Q 306.4 45.5 308.6 35 L 308.6 35 L 313.3 10.4 L 326.3 9.1 L 320.1 41.5 L 320.1 41.5 Q 319 46.3 319 47.9 L 319 47.9 L 319 47.9 Q 319 51.6 321.6 51.7 Z M 353 44.4 L 353 44.4 L 353 44.4 Q 354.6 45.5 354.6 47.9 L 354.6 47.9 L 354.6 47.9 Q 354.6 50.3 353.3 51.8 L 353.3 51.8 L 353.3 51.8 Q 352.1 53.4 350.1 54.4 L 350.1 54.4 L 350.1 54.4 Q 346.1 56.5 341.6 56.5 L 341.6 56.5 L 341.6 56.5 Q 337.2 56.5 334.6 55.5 L 334.6 55.5 L 334.6 55.5 Q 332 54.6 330.3 52.8 L 330.3 52.8 L 330.3 52.8 Q 326.9 49.4 326.9 43.2 L 326.9 43.2 L 326.9 43.2 Q 326.9 33.5 332.2 27.6 L 332.2 27.6 L 332.2 27.6 Q 337.8 21.3 347.6 21.3 L 347.6 21.3 L 347.6 21.3 Q 353.7 21.3 356.7 23.9 L 356.7 23.9 L 356.7 23.9 Q 358.9 25.8 358.9 28.9 L 358.9 28.9 L 358.9 28.9 Q 358.9 40.2 339.5 40.2 L 339.5 40.2 L 339.5 40.2 Q 339.2 41.8 339.2 43.3 L 339.2 43.3 L 339.2 43.3 Q 339.2 46.2 340.5 47.3 L 340.5 47.3 L 340.5 47.3 Q 341.8 48.4 344.3 48.4 L 344.3 48.4 L 344.3 48.4 Q 346.7 48.4 349.3 47.3 L 349.3 47.3 L 349.3 47.3 Q 351.9 46.2 353 44.4 Z M 339.9 37.4 L 339.9 37.4 L 339.9 37.4 Q 344.5 37.4 347.1 34.6 L 347.1 34.6 L 347.1 34.6 Q 349.7 31.9 349.7 27.6 L 349.7 27.6 L 349.7 27.6 Q 349.7 26.2 349.2 25.4 L 349.2 25.4 L 349.2 25.4 Q 348.6 24.6 347.5 24.6 L 347.5 24.6 L 347.5 24.6 Q 346.4 24.6 345.5 25 L 345.5 25 L 345.5 25 Q 344.6 25.4 343.6 26.8 L 343.6 26.8 L 343.6 26.8 Q 341.3 30 339.9 37.4 Z M 381.1 37.2 L 381.1 37.2 L 381.1 37.2 Q 383.4 33.1 383.4 29 L 383.4 29 L 383.4 29 Q 383.4 26.2 381.4 26.2 L 381.4 26.2 L 381.4 26.2 Q 379.9 26.2 378.3 28.9 L 378.3 28.9 L 378.3 28.9 Q 376.6 31.5 376.1 34.9 L 376.1 34.9 L 372.8 55.2 L 359.6 56.5 L 366.1 22.6 L 376.6 21.3 L 375.5 27.8 L 375.5 27.8 Q 378.6 21.3 385.7 21.3 L 385.7 21.3 L 385.7 21.3 Q 389.4 21.3 391.4 23.2 L 391.4 23.2 L 391.4 23.2 Q 393.4 25.1 393.4 29.1 L 393.4 29.1 L 393.4 29.1 Q 393.4 33 390.8 35.5 L 390.8 35.5 L 390.8 35.5 Q 388.2 38 383.8 38 L 383.8 38 L 383.8 38 Q 381.9 38 381.1 37.2 Z M 414.8 48 L 414.8 48 L 414.8 48 Q 411.5 51.4 405.4 51.4 L 405.4 51.4 L 405.4 51.4 Q 397.8 51.4 396.2 45.9 L 396.2 45.9 L 396.2 45.9 Q 395.7 44.2 395.7 42.4 L 395.7 42.4 L 395.7 42.4 Q 395.7 40.5 396 38.6 L 396 38.6 L 399 22.6 L 412 21.3 L 408.5 39.9 L 408.5 39.9 Q 408.4 40.8 408.2 41.7 L 408.2 41.7 L 408.2 41.7 Q 408 42.6 408 43.5 L 408 43.5 L 408 43.5 Q 408 44.4 408.3 45 L 408.3 45 L 408.3 45 Q 408.6 45.6 409.1 46 L 409.1 46 L 409.1 46 Q 409.9 46.5 411.2 46.5 L 411.2 46.5 L 411.2 46.5 Q 412.6 46.5 413.8 44.9 L 413.8 44.9 L 413.8 44.9 Q 415 43.2 415.6 40.3 L 415.6 40.3 L 419.1 22.6 L 431.7 21.3 L 426.9 46.5 L 426.9 46.5 Q 424.5 58.7 419.7 63.6 L 419.7 63.6 L 419.7 63.6 Q 417.2 66.1 413.9 67.1 L 413.9 67.1 L 413.9 67.1 Q 410.7 68.1 406.5 68.1 L 406.5 68.1 L 406.5 68.1 Q 399.8 68.1 396 66 L 396 66 L 396 66 Q 392.1 63.9 392.1 60.3 L 392.1 60.3 L 392.1 60.3 Q 392.1 57.7 394.1 56.2 L 394.1 56.2 L 394.1 56.2 Q 396.1 54.7 399.2 54.7 L 399.2 54.7 L 399.2 54.7 Q 401.9 54.7 403.9 55.9 L 403.9 55.9 L 403.9 55.9 Q 405.1 56.6 405.7 57.5 L 405.7 57.5 L 405.7 57.5 Q 404.2 58.7 404.2 60.9 L 404.2 60.9 L 404.2 60.9 Q 404.2 63.7 406.8 63.7 L 406.8 63.7 L 406.8 63.7 Q 411 63.7 413.4 53.9 L 413.4 53.9 L 413.4 53.9 Q 414.1 51.1 414.8 48 Z" fill="url(#editing-gradient-gradient)"></path></g></g><style>text {
  font-size: 64px;
  font-family: Arial Black;
  dominant-baseline: central;
  text-anchor: middle;
}</style></svg>